<?xml version="1.0" encoding="UTF-8" standalone="no"?>
<svg width="35px" height="36px" viewBox="0 0 35 36" version="1.1" xmlns="http://www.w3.org/2000/svg" xmlns:xlink="http://www.w3.org/1999/xlink" xmlns:sketch="http://www.bohemiancoding.com/sketch/ns">
    <!-- Generator: Sketch 3.3.2 (12043) - http://www.bohemiancoding.com/sketch -->
    <title>social_facebook</title>
    <desc>Created with Sketch.</desc>
    <defs></defs>
    <g id="V1" stroke="none" stroke-width="1" fill="none" fill-rule="evenodd" sketch:type="MSPage">
        <g id="Skylock-Desktop" sketch:type="MSArtboardGroup" transform="translate(-1115.000000, -7497.000000)" fill="#BFBFBF">
            <g id="Footer" sketch:type="MSLayerGroup" transform="translate(0.000000, 7421.527697)">
                <g id="46-facebook-+-78-instagram-+-43-twitter" transform="translate(1032.000000, 76.000000)" sketch:type="MSShapeGroup">
                    <g id="social_facebook" transform="translate(83.000000, 0.000000)">
                        <path d="M17.7429,0.1099 C8.2229,0.1099 0.5054,7.8288 0.5054,17.3474 C0.5054,26.8674 8.2229,34.5835 17.7429,34.5835 C27.2629,34.5835 34.9804,26.8674 34.9804,17.3474 C34.9804,7.8288 27.2622,0.1099 17.7429,0.1099 L17.7429,0.1099 Z M22.3048,17.2753 L19.32,17.2753 L19.32,27.9202 L14.896,27.9202 L14.896,17.2753 L12.7918,17.2753 L12.7918,13.517 L14.896,13.517 L14.896,11.0817 C14.896,9.3387 15.7234,6.6178 19.3613,6.6178 L22.6373,6.6304 L22.6373,10.2809 L20.2587,10.2809 C19.8702,10.2809 19.3207,10.4748 19.3207,11.3036 L19.3207,13.5177 L22.6933,13.5177 L22.3048,17.2753 L22.3048,17.2753 Z" id="Shape"></path>
                    </g>
                </g>
            </g>
        </g>
    </g>
</svg>