<?xml version="1.0" encoding="UTF-8" standalone="no"?>
<svg width="35px" height="36px" viewBox="0 0 35 36" version="1.1" xmlns="http://www.w3.org/2000/svg" xmlns:xlink="http://www.w3.org/1999/xlink" xmlns:sketch="http://www.bohemiancoding.com/sketch/ns">
    <!-- Generator: Sketch 3.3.2 (12043) - http://www.bohemiancoding.com/sketch -->
    <title>social_twitter</title>
    <desc>Created with Sketch.</desc>
    <defs></defs>
    <g id="V1" stroke="none" stroke-width="1" fill="none" fill-rule="evenodd" sketch:type="MSPage">
        <g id="Skylock-Desktop" sketch:type="MSArtboardGroup" transform="translate(-1170.000000, -7497.000000)" fill="#BFBFBF">
            <g id="Footer" sketch:type="MSLayerGroup" transform="translate(0.000000, 7421.527697)">
                <g id="46-facebook-+-78-instagram-+-43-twitter" transform="translate(1032.000000, 76.000000)" sketch:type="MSShapeGroup">
                    <g id="social_twitter" transform="translate(138.000000, 0.000000)">
                        <path d="M17.7436,0.1099 C8.2236,0.1099 0.5061,7.8288 0.5061,17.3474 C0.5061,26.8674 8.2236,34.5835 17.7436,34.5835 C27.2636,34.5835 34.9797,26.8674 34.9797,17.3474 C34.9797,7.8288 27.2629,0.1099 17.7436,0.1099 L17.7436,0.1099 Z M26.4264,13.8719 C26.4355,14.0581 26.439,14.245 26.439,14.434 C26.439,20.1747 22.0696,26.7932 14.0798,26.7932 C11.627,26.7932 9.3429,26.0743 7.4207,24.8423 C7.7609,24.8822 8.106,24.9025 8.4567,24.9025 C10.4923,24.9025 12.3655,24.2081 13.8516,23.0433 C11.9511,23.0076 10.3474,21.7511 9.7944,20.0256 C10.059,20.0774 10.3313,20.1033 10.6113,20.1033 C11.0075,20.1033 11.3911,20.0515 11.7558,19.9514 C9.7678,19.5524 8.2705,17.7954 8.2705,15.6926 C8.2705,15.6737 8.2705,15.6555 8.2712,15.6366 C8.8564,15.9621 9.5263,16.1574 10.2389,16.1805 C9.0727,15.4 8.3062,14.0721 8.3062,12.5643 C8.3062,11.7684 8.5204,11.0215 8.8942,10.3803 C11.0369,13.0081 14.238,14.7378 17.8486,14.9184 C17.7744,14.6013 17.7359,14.2688 17.7359,13.9286 C17.7359,11.5304 19.6805,9.5851 22.0801,9.5851 C23.3296,9.5851 24.458,10.1129 25.2504,10.9564 C26.2402,10.7625 27.1698,10.3999 28.0091,9.9022 C27.6836,10.9172 26.9955,11.7684 26.0981,12.3053 C26.978,12.2003 27.8152,11.9665 28.5936,11.6214 C28.0126,12.4943 27.2755,13.2594 26.4264,13.8719 L26.4264,13.8719 Z" id="Shape"></path>
                    </g>
                </g>
            </g>
        </g>
    </g>
</svg>