<?xml version="1.0" encoding="UTF-8" standalone="no"?>
<svg width="35px" height="36px" viewBox="0 0 35 36" version="1.1" xmlns="http://www.w3.org/2000/svg" xmlns:xlink="http://www.w3.org/1999/xlink" xmlns:sketch="http://www.bohemiancoding.com/sketch/ns">
    <!-- Generator: Sketch 3.3.2 (12043) - http://www.bohemiancoding.com/sketch -->
    <title>social_instagram</title>
    <desc>Created with Sketch.</desc>
    <defs></defs>
    <g id="V1" stroke="none" stroke-width="1" fill="none" fill-rule="evenodd" sketch:type="MSPage">
        <g id="Skylock-Desktop" sketch:type="MSArtboardGroup" transform="translate(-1225.000000, -7497.000000)" fill="#BFBFBF">
            <g id="Footer" sketch:type="MSLayerGroup" transform="translate(0.000000, 7421.527697)">
                <g id="46-facebook-+-78-instagram-+-43-twitter" transform="translate(1032.000000, 76.000000)" sketch:type="MSShapeGroup">
                    <g id="social_instagram" transform="translate(193.000000, 0.000000)">
                        <g id="Group">
                            <path d="M24.8584,13.5744 L24.8584,10.8115 L24.8584,10.3985 L24.4454,10.3999 L21.6825,10.4097 L21.693,13.5849 L24.8584,13.5744 Z" id="Shape"></path>
                            <path d="M17.6575,20.9076 C19.4761,20.9076 20.9566,19.4285 20.9566,17.6099 C20.9566,16.8924 20.7228,16.2274 20.3315,15.6863 C19.733,14.8561 18.7579,14.3108 17.6575,14.3108 C16.5571,14.3108 15.5834,14.8561 14.9835,15.6863 C14.5922,16.2274 14.3598,16.8924 14.3598,17.6099 C14.3598,19.4285 15.8389,20.9076 17.6575,20.9076 L17.6575,20.9076 Z" id="Shape"></path>
                            <path d="M17.7436,0.1106 C8.2236,0.1106 0.5061,7.8267 0.5061,17.3467 C0.5061,26.8667 8.2236,34.5842 17.7436,34.5842 C27.2622,34.5842 34.9797,26.8667 34.9797,17.3467 C34.9797,7.8267 27.2615,0.1106 17.7436,0.1106 L17.7436,0.1106 Z M27.0277,15.6863 L27.0277,23.359 C27.0277,25.3554 25.4023,26.9794 23.4059,26.9794 L11.9084,26.9794 C9.9113,26.9794 8.2873,25.3554 8.2873,23.359 L8.2873,15.6863 L8.2873,11.8615 C8.2873,9.8644 9.9113,8.2404 11.9084,8.2404 L23.4059,8.2404 C25.4023,8.2404 27.0277,9.8644 27.0277,11.8615 L27.0277,15.6863 L27.0277,15.6863 Z" id="Shape"></path>
                            <path d="M22.7815,17.6099 C22.7815,20.4344 20.4834,22.7339 17.6575,22.7339 C14.8316,22.7339 12.5349,20.4344 12.5349,17.6099 C12.5349,16.9288 12.67,16.2813 12.9108,15.6863 L10.1136,15.6863 L10.1136,23.359 C10.1136,24.3488 10.9186,25.1538 11.9084,25.1538 L23.4059,25.1538 C24.3957,25.1538 25.2007,24.3488 25.2007,23.359 L25.2007,15.6863 L22.4021,15.6863 C22.645,16.2813 22.7815,16.9295 22.7815,17.6099 L22.7815,17.6099 Z" id="Shape"></path>
                        </g>
                    </g>
                </g>
            </g>
        </g>
    </g>
</svg>